<?xml version="1.0" encoding="UTF-8"?>
<svg enable-background="new 0 0 860.8 321.4" version="1.1" viewBox="0 0 860.8 321.4" xml:space="preserve" xmlns="http://www.w3.org/2000/svg">
<style type="text/css">
	.st0{fill:#FFFFFF;}
</style>
<path class="st0" d="m150.4 8.4c0.3 1 0.7 1.9 0.7 2.8 0.2 3.6 0.3 7.3 0.3 10.9 0 2.6-0.8 3.3-3.4 3.6-1.1 0.1-2.2 0-3.3 0.1-1.2 0.2-2.4 0.4-3.5 0.8-1.2 0.4-1.7 1.5-1.6 2.8 0.1 1.1 0.7 1.8 2.1 2.2 0.6 0.2 1.2 0.3 1.8 0.3l11.1-0.6c2.2-0.1 3.9-2.1 3.9-4.3 0-2.6 0-5.2 0.1-7.8 0-2.6 0.1-5.1 0.1-7.7 0-0.5 0.1-1.1 0.3-1.6 0.5-2 1-2.4 3.1-2.3 1.9 0.1 3.7 0.4 5.6 0.6 3.7 0.4 7.4 0.6 11.1 1.1 4.1 0.6 8.2 1.3 12.2 2.1 2.3 0.5 2.9 1.6 2.4 3.9-0.6 2.7-1.2 5.3-1.8 8-0.2 0.6-0.4 1.3-0.6 1.9-1 2.4-1.5 2.8-4.1 2.7-1.7-0.1-3.4-0.3-5.1-0.5-0.5-0.1-1.1-0.1-1.6-0.1-1 0-2 0.3-2.3 1.4s-0.2 2.2 0.7 3c0.4 0.4 0.9 0.7 1.4 0.9 0.7 0.3 1.5 0.5 2.3 0.7 3 0.7 6.1 1.3 9.1 2 1.8 0.4 2.4 0.2 3.3-1.4 0.6-1.2 1.1-2.6 1.5-3.9 1.2-4.1 2.4-8.3 3.7-12.4 1-3.4 1.7-3.8 5-2.6 6.2 2.3 12.4 4.8 18.5 7.2 1.2 0.5 2.5 1 3.6 1.7 1.9 1.1 2.4 2.4 1.3 4.5-1.7 3.4-3.5 6.7-5.4 9.9-0.9 1.5-1.3 1.7-3 1.2-1-0.3-2-0.8-3.1-1.2-0.8-0.3-1.7-0.7-2.6-0.9-1.5-0.3-2.7 0.4-3.2 1.8-0.5 1.2-0.1 2.1 1.2 3.1 0.5 0.4 1.1 0.7 1.7 1 2 1 4 2.1 6 3.1 2.2 1.1 3.5 0.8 4.8-1.3 1.5-2.4 2.9-4.8 4.3-7.2 1.5-2.5 3-4.9 4.4-7.3 0.7-1.3 1.8-1.5 3.1-1.2 0.7 0.2 1.4 0.5 2 0.9 5.6 4 11.3 8.1 16.9 12.1l0.1 0.1c3.1 2.5 3.3 3.7 0.7 6.7-1.7 2-3.5 4-5.3 6-0.4 0.4-0.7 0.8-1.1 1.2-1.6 1.6-2.2 1.7-4.1 0.4-0.8-0.5-1.5-1.2-2.3-1.8s-1.5-1.2-2.3-1.7c-1.5-1-2.2-0.9-3.2 0.2s-1.2 2.7-0.4 3.8c0.4 0.5 0.9 1 1.4 1.5 2.2 1.9 4.3 3.7 6.5 5.6 0.3 0.3 0.7 0.5 1 0.8 1.3 0.9 2 0.8 3.3-0.1 0.6-0.4 1.1-1 1.6-1.5 3.1-3.2 6.3-6.5 9.4-9.7 0.7-0.7 1.4-1.4 2.2-2 1-0.8 1.8-0.8 2.8 0 0.6 0.4 1.1 0.9 1.6 1.5 6.1 6.5 11.7 13.4 16.9 20.6 2.6 3.6 1.7 4-1.1 5.9-2.4 1.6-4.8 3.1-7.2 4.7-0.6 0.4-1.2 0.7-1.8 1-1.2 0.6-2.4 0.4-3.3-0.7l-2.4-3c-0.8-1-1.6-2.2-2.5-3.1-1-1.1-2.1-1.1-3.3-0.4-1.1 0.7-1.6 1.8-1.2 3.1 0.2 0.5 0.4 1 0.7 1.5 2.1 3.1 4.1 6.2 6.2 9.2 1.8 2.6 2.7 2.8 5.5 1.2 4-2.2 7.9-4.6 11.9-6.8 0.8-0.5 1.6-0.9 2.4-1.3 1.6-0.6 2.7-0.3 3.6 1.1 0.4 0.5 0.7 1.1 1 1.7 4 8.1 7.6 16.3 10.6 24.8 0.1 0.2 0.2 0.5 0.2 0.7 0.7 2.3 0.3 3.2-2 4-3.7 1.2-7.4 2.3-11.1 3.5-0.9 0.3-1.7 0-2.3-0.7-0.6-0.8-1.1-1.6-1.5-2.5-0.5-1.1-0.7-2.3-1.2-3.4-0.5-1-1.1-1.9-1.7-2.8-0.7-0.9-1.7-0.9-2.7-0.4-1 0.4-1.6 1-1.5 2.2 0.2 1.1 0.3 2.3 0.6 3.4 0.7 2.5 1.5 4.9 2.3 7.3l0.3 0.9c1.1 2.8 2.3 3.5 5.2 2.9 4.2-0.9 8.4-2.1 12.6-3.1 1.1-0.3 2.1-0.6 3.2-0.7 1.8-0.2 2.3 0.1 2.9 1.8s1.1 3.5 1.4 5.3c0.8 4.5 1.5 9 2.1 13.5 0.3 1.9 0.4 3.9 0.5 5.8 0 0.6-0.1 1.2-0.2 1.8-0.2 1.2-1 1.9-2.1 1.9-3.9 0.2-7.8 0.4-11.7 0.4-1.8 0-3-1-3.4-2.8-0.2-0.8-0.2-1.7-0.4-2.5-0.2-1.1-0.4-2.2-0.7-3.2-0.5-1.3-1.7-1.7-3-1.1-1.1 0.5-1.9 1.4-2.1 2.6-0.1 0.3-0.1 0.6-0.1 0.9 0.4 3.1 0.7 6.3 1.2 9.4 0.3 1.6 1.1 2.2 2.9 2.2 2.8 0.1 5.6 0.1 8.4 0.2h7.7c3 0.1 3.6 0.7 3.6 3.7 0 5.8-0.4 11.5-1.6 17.2-0.3 1.7-0.4 3.4-0.6 5.1-0.3 2.4-1.3 3.2-3.7 3-1.2-0.1-2.3-0.2-3.4-0.4-2.4-0.5-4.9-1.1-7.3-1.7-1.9-0.5-2.5-1.3-2.5-3.2 0-1.1 0.3-2.2 0.3-3.3 0.1-1.1 0.1-2.3 0-3.4-0.2-1.4-0.9-2-2.1-2.1-1.3-0.1-2.3 0.3-2.9 1.4-0.3 0.6-0.5 1.2-0.6 1.9-0.6 3-1.1 6.1-1.6 9.1-0.5 3.2-0.2 3 2.2 3.9 2.2 0.8 4.6 1.3 6.8 1.9 2.9 0.8 5.9 1.5 8.8 2.2 0.4 0.1 0.8 0.2 1.2 0.4 2.2 0.9 2.5 1.5 1.9 3.8-0.9 2.9-1.8 5.8-2.9 8.7-2 5.4-4.1 10.8-6.3 16.1-0.5 1.2-1.2 2.2-2 3.3-0.5 0.7-1.4 1-2.3 0.7s-1.9-0.6-2.7-1l-6.3-3.3c-3.7-1.9-4.2-3.6-2.4-7.4 0.7-1.4 1.4-2.8 2-4.3 0.8-2.1-0.9-4.1-3.2-3.7-0.5 0.1-1.1 0.5-1.5 0.9-0.6 0.8-1.1 1.6-1.5 2.5-1.4 2.8-2.8 5.6-4.1 8.4-1.6 3.3-1.2 4.5 2 6.4l11.4 6.6c0.9 0.5 1.8 1.1 2.5 1.8 1.1 1.1 1.2 1.8 0.5 3.3-0.2 0.5-0.5 1-0.8 1.4-4.8 7.2-9.9 14.2-15.5 20.8-0.6 0.7-1.3 1.5-2 2.1-1.2 1.1-1.9 1.1-3.3 0.2-0.4-0.2-0.7-0.5-1-0.8-2.5-2.4-5.1-4.9-7.6-7.4-1.5-1.5-1.5-2.7-0.2-4.4 0.8-1 1.7-1.9 2.5-2.9 0.7-0.8 1.3-1.6 1.9-2.5 0.8-1.2 0.6-2.2-0.3-3.1-1-1-2.3-1.3-3.5-0.6-0.7 0.4-1.3 1-1.8 1.5-2.2 2.4-4.5 4.8-6.6 7.3-1.8 2-1.9 3.2 0 5.3 3 3.2 6.1 6.3 9.1 9.5 1 1 1.9 2 2.8 3.1 0.9 1.3 0.9 1.7-0.1 2.9-0.5 0.6-1 1.2-1.7 1.7-5.7 4.5-11.4 8.9-17.1 13.4-0.1 0.1-0.2 0.1-0.3 0.2-2.9 2-4.2 1.8-6.2-1.1-1.8-2.7-3.5-5.4-5.1-8.2-1.3-2.2-1-3.1 1-4.7 0.8-0.6 1.6-1.1 2.4-1.7 0.6-0.5 1.3-1.2 1.7-1.9 0.7-1.1 0.5-2.2-0.4-3.2-0.8-0.9-1.8-1.1-3-0.6-0.7 0.3-1.3 0.6-1.9 1-2 1.3-4 2.6-5.9 4-2 1.5-2.3 2.4-1.1 4.7 2.3 4.1 4.6 8.1 6.9 12.2 0.5 0.9 1.1 1.9 1.5 2.9 0.5 1.4 0.3 2.1-0.9 3-0.6 0.4-1.2 0.8-1.9 1.1-6.3 2.9-12.6 5.8-18.9 8.6-3.7 1.6-4.6 1.1-6-2.7-1-2.7-1.9-5.4-2.8-8.1-0.1-0.3-0.2-0.6-0.2-0.9-0.4-2.3 0-3.2 2.1-4.3 1.5-0.7 3-1.2 4.5-1.9 1.4-0.7 1.9-1.9 1.6-3.3-0.4-1.8-1.6-2.6-3.4-2.1-3.6 1.2-7.2 2.6-10.8 4-1.2 0.5-1.7 1.3-1.5 2.6 0.5 2.2 1 4.4 1.6 6.5 0.9 3.3 2 6.6 3 10 0.8 2.6 0.1 3.9-2.5 4.7-0.2 0.1-0.3 0.1-0.5 0.2-4.6 0.9-9.2 1.7-13.8 2.6-2.5 0.5-4.9 0.9-7.4 1.3-1.8 0.3-3.6 0.4-5.4 0.5-0.7 0-1.3 0-2-0.1-1.7-0.3-2.4-0.9-2.5-2.7-0.2-2.7-0.2-5.3-0.3-8v-3.3c0-1.5 0.8-2.6 2.3-3 1.2-0.3 2.5-0.5 3.7-0.7 1.5-0.3 3-0.4 4.5-0.8s2-1.8 1.1-3.2c-0.8-1.4-2-2.3-3.7-2.1-0.8 0.1-1.6 0.1-2.3 0.3-2.1 0.6-4.3 0.7-6.5 0.7-1 0-2.1 0.1-3.1 0.2-1.3 0.1-2.2 0.9-2.5 2.1-0.3 0.9-0.4 1.9-0.5 2.9v13c0 0.6 0 1.2-0.1 1.8-0.3 1.6-1.1 2.4-2.8 2.7-0.4 0.1-0.7 0.1-1.1 0.1-5.9 0-11.8 0-17.6-1.3-2.7-0.6-5.4-0.7-8.1-1.2-1.4-0.2-2.7-0.7-4-1.3-1.5-0.7-1.7-1.2-1.3-2.8 0.7-3.1 1.4-6.2 2.2-9.2 0.2-0.9 0.7-1.8 1-2.7 0.5-1.2 1.3-1.7 2.6-1.6 1.2 0.2 2.4 0.4 3.6 0.6s2.4 0.6 3.6 0.7c1.7 0.2 2.5-0.6 2.8-2.2 0.3-1.5-0.4-3.1-1.7-3.4-4-0.9-7.9-1.8-12-2.5-1.8-0.3-2.7 0.3-3.5 2-0.4 0.8-0.7 1.7-1 2.5-1 3.4-1.9 6.9-3 10.3-0.4 1.5-0.9 2.9-1.6 4.3s-1.4 1.7-3 1.4c-0.6-0.1-1.2-0.3-1.8-0.5-6.2-2.4-12.3-4.9-18.5-7.4-1.4-0.6-2.7-1.4-4-2.1-1-0.5-1.2-1.3-1-2.3 0.1-0.6 0.3-1.2 0.5-1.7 1.6-3.1 3.3-6.1 5-9.1 1.1-2 2.6-2.4 4.7-1.5 1.3 0.5 2.5 1.2 3.8 1.7 1.1 0.5 2 0.2 2.8-0.6 1.3-1.2 1.3-2.8 0-4-0.3-0.3-0.7-0.6-1.2-0.9-2.2-1.2-4.4-2.4-6.6-3.4-2.6-1.2-4-0.8-5.5 1.7-2.2 3.6-4.2 7.3-6.3 10.9-0.7 1.2-1.3 2.3-2.1 3.4-1.1 1.5-2 1.6-3.6 0.8-0.9-0.5-1.7-1-2.5-1.5-5.3-3.8-10.7-7.7-16-11.6-3-2.3-3.1-3.6-0.7-6.4 1.7-2 3.5-4 5.3-6 0.3-0.4 0.7-0.7 1-1 1.8-1.6 2.9-1.7 4.9-0.3 0.9 0.6 1.7 1.4 2.6 2 0.6 0.4 1.2 0.8 1.9 1.1 1.3 0.6 2.3 0.4 3.1-0.6 0.9-1.1 0.9-2.4 0-3.5-0.5-0.7-1.1-1.3-1.8-1.8-1.9-1.7-3.9-3.3-5.9-5l-1.2-0.9c-1.1-0.8-2.3-0.7-3.4 0.1-0.7 0.6-1.4 1.2-2 1.8-3 3.1-6 6.2-9 9.3-0.7 0.7-1.4 1.3-2.2 1.9-1 0.7-1.8 0.7-2.8-0.1-0.5-0.4-1-0.9-1.5-1.4-6.2-6.5-11.8-13.5-17-20.7-1.9-2.6-2.4-3.2 1.1-5.7 2.5-1.8 5.2-3.4 7.8-5.1 2.4-1.5 3.6-1.3 5.4 0.9 0.8 0.9 1.4 2 2.2 2.9 0.7 0.9 1.3 1.7 2.1 2.5 1 0.9 1.9 1 3 0.4 1-0.6 1.7-1.8 1.4-2.9-0.2-0.8-0.5-1.5-1-2.1-1.8-2.7-3.7-5.5-5.5-8.2-2.5-3.5-3.6-3.4-6.8-1.5-3.9 2.3-7.9 4.6-11.9 6.8-3.3 1.9-4.5 1.6-6.2-1.8-4-8.1-7.6-16.3-10.6-24.8-1.1-3-0.5-4.2 2.6-5.2 2.6-0.9 5.2-1.6 7.9-2.4 0.5-0.2 1.1-0.3 1.6-0.3 2.5-0.3 3.6 0.3 4.5 2.7 0.8 2 1.6 3.9 2.4 5.9 0.4 0.9 1 1.5 2.1 1.3s2-0.7 2.4-1.7c0.2-0.6 0.3-1.3 0.2-2-0.1-0.9-0.4-1.8-0.6-2.7-0.7-2.3-1.4-4.5-2.2-6.8-0.4-1-0.8-2-1.3-3-0.6-1.1-1.5-1.5-2.8-1.3-0.7 0.1-1.3 0.2-2 0.4-4.3 1.1-8.6 2.1-12.9 3.2-0.8 0.2-1.6 0.3-2.3 0.4-1.8 0.1-2.4-0.3-3-1.9-1-2.7-1.4-5.5-1.8-8.4-0.6-4.2-1.2-8.3-1.7-12.5-0.2-1.4-0.2-2.9-0.2-4.4 0-1.9 1.1-3.1 3-3.3 3.7-0.2 7.4-0.4 11.1-0.4 1.7 0 2.9 1.1 3.3 2.8 0.2 0.9 0.2 1.9 0.3 2.9 0.1 0.6 0.1 1.2 0.2 1.8 0.4 1.9 1.3 2.5 3.3 2.3 1.7-0.2 2.6-1.2 2.4-3-0.3-3.1-0.6-6.2-1.1-9.2-0.2-1.5-1.1-2.2-2.7-2.2-2.5-0.1-5-0.1-7.5-0.1h-8.4c-0.7 0-1.3 0-2-0.2-1.1-0.2-1.8-0.9-2-2.1-0.1-0.7-0.2-1.3-0.1-2 0.1-5 0.1-10.1 1.2-15.1 0.4-2 0.5-4.1 0.7-6.2 0.1-0.7 0.1-1.5 0.3-2.2 0.5-1.9 1.8-2.7 3.7-2.3 3 0.6 6.1 1.2 9.1 1.9 0.9 0.2 1.9 0.6 2.7 1 1.1 0.6 1.7 1.6 1.4 2.9-0.2 1-0.3 1.9-0.4 2.9-0.1 0.8-0.3 1.6-0.4 2.3-0.1 1.8 0.8 2.8 2.4 3.1 1.6 0.2 2.9-0.6 3.3-2.1 0.2-0.6 0.2-1.3 0.4-2 0.3-1.8 0.7-3.7 1-5.5 0.2-1.1 0.4-2.1 0.5-3.2 0.2-1.5-0.6-2.5-1.8-3.1-0.6-0.3-1.4-0.5-2.1-0.7-4.2-1-8.4-2-12.6-3.1-0.9-0.2-1.9-0.5-2.8-0.9-1.9-0.8-2.3-1.5-1.7-3.4 1.1-3.7 2.2-7.5 3.6-11.1 1.7-4.7 3.7-9.4 5.6-14.1 0.4-1 0.9-1.9 1.4-2.7 0.9-1.4 1.7-1.6 3.3-1.1 0.3 0.1 0.7 0.3 1 0.4 2.9 1.5 5.7 3 8.6 4.5 0.4 0.2 0.9 0.5 1.2 0.8 0.9 0.8 1.5 1.8 1 3.1-0.6 1.5-1.2 3-1.8 4.6-0.4 1.1-0.8 2.3-0.9 3.5-0.1 1.3 0.5 2.3 1.5 2.6 1.3 0.5 2.3 0.1 3.2-1.1 0.3-0.4 0.7-0.9 0.9-1.4 1.6-3.3 3.2-6.5 4.8-9.9 1-2.1 0.5-3.6-1.4-4.9-0.8-0.6-1.7-1.1-2.6-1.6-3.4-2-6.9-3.9-10.3-6-3.6-2.2-3.8-2.9-1.4-6.5 4.8-7.3 10.1-14.3 15.7-21.1 2.5-3 3.7-3 6.6-0.3 2 1.9 4.1 3.9 6.1 5.8 0.5 0.5 0.9 1 1.3 1.5 0.7 1 0.8 2.1 0.1 3.1s-1.5 2-2.3 3c-0.8 1.1-1.7 2.1-2.4 3.2s-0.5 2.1 0.4 3 2.1 1.3 3.1 0.7c0.7-0.4 1.3-0.9 1.9-1.4 2.3-2.5 4.6-5.1 6.8-7.6 0.1-0.1 0.2-0.3 0.3-0.4 1.3-1.7 1.3-3-0.2-4.6-2.6-2.9-5.4-5.6-8-8.5-1.2-1.2-2.4-2.5-3.5-3.7-1.3-1.5-1.3-2.6 0.1-4 0.8-0.8 1.6-1.6 2.4-2.2 5.3-4.1 10.5-8.3 15.8-12.4 0.4-0.3 0.9-0.6 1.4-0.9 1.9-1.2 3.1-1.1 4.4 0.7 2.1 3.1 4.1 6.2 6 9.4 1.1 1.8 0.9 2.8-0.7 4.2-1 0.9-2.2 1.6-3.2 2.4-0.6 0.5-1.3 1.2-1.6 1.9-0.4 1.1 0 2.2 0.9 3 0.8 0.8 1.7 0.9 2.7 0.4 0.3-0.1 0.6-0.2 0.8-0.4 2.5-1.6 5-3.3 7.4-5 1.1-0.7 1.4-1.8 1.1-3.1-0.2-0.9-0.6-1.8-1.1-2.7-2.2-3.9-4.4-7.7-6.7-11.5-2-3.5-1.8-4.8 1.8-6.5 6.4-3.1 12.8-5.9 19.3-8.7 1-0.4 2.3-0.3 3.4-0.3 0.4 0 0.9 0.4 1 0.8 0.6 1.3 1.2 2.7 1.7 4 0.7 1.9 1.3 3.9 2 5.9 1.1 3.4 0.5 4.7-2.8 6.1-1.3 0.6-2.6 1.1-3.8 1.8-0.6 0.4-1.1 1.1-1.3 1.8-0.4 1.3 0.6 3.3 2.7 3 0.9-0.1 1.8-0.3 2.7-0.5 2.2-0.8 4.5-1.6 6.7-2.4 0.5-0.2 0.9-0.3 1.3-0.6 2.8-1.4 3-1.7 2.1-4.7-1.4-4.8-2.8-9.6-4.2-14.4-0.1-0.2-0.2-0.5-0.2-0.7-0.7-2.5-0.4-3.1 2-4 0.9-0.3 1.8-0.7 2.8-0.9 4.7-1 9.4-2 14.1-2.7 4-0.6 8.1-0.9 12.2-1.2 1.2 1 1.8 1 2.8 1zm-42.9 283.2c-1.6-0.6-3-1.1-4.3-1.6-1.2-0.5-2.4-1.1-3.7-1.5-1.2-0.4-2.1 0.1-2.8 1.1-1 1.5-0.7 3.2 0.9 4 3.6 1.6 7.3 3.1 10.9 4.6 0.3 0.1 0.6 0.1 0.9 0.2 1.4 0.2 2.4-0.2 3-1.6 0.6-1.6 1.3-3.2 1.8-4.8 1.2-3.6 2.3-7.2 3.7-10.7 1.3-3.3 1.3-3.9 5.8-2.8 5.1 1.3 10.1 2.7 15.3 3.3 1.8 0.2 3.6 0.7 5.3 1.3 1.9 0.7 2.5 2 2.2 4-0.4 2.6-0.7 5.3-1 8-0.1 0.7-0.1 1.5-0.2 2.2-0.3 1.9-0.9 2.6-2.8 2.7-1.5 0.1-3-0.1-4.6-0.2-1.2-0.1-2.4-0.3-3.6-0.1-0.8 0.1-1.7 0.5-2.3 1-1.1 1-1 2.4 0.3 3.2 0.9 0.5 1.9 1 2.8 1.2 4.6 1.2 9.4 1.3 14.1 1.2 1.1 0 1.7-0.6 1.9-1.6 0.2-1.2 0.3-2.4 0.4-3.6 0.4-4.4 0.6-8.7 1.1-13.1 0.5-4.1 0.8-4.2 4.9-4.3 4.9-0.2 9.7-0.5 14.6-0.8 2.1-0.2 4.1-0.7 6.1-0.9 2-0.3 3 0.4 3.7 2.2 1.4 3.8 2 7.8 2.3 11.8 0.1 2.1-0.5 2.9-2.5 3.5-1.4 0.4-2.9 0.4-4.3 0.6-1.2 0.2-2.4 0.3-3.6 0.7-1.4 0.5-1.9 1.6-1.7 3 0.2 1.3 1 2.2 2.5 2.2 1.4 0.1 2.8 0 4.2-0.2 3.2-0.5 6.3-1.1 9.5-1.7 0.6-0.1 1.2-0.3 1.8-0.5 1.2-0.5 2-1.4 1.9-2.8-0.1-1-0.2-2.1-0.4-3.1-1-4-2-7.9-3-11.8-0.2-1-0.4-2-0.4-3.1-0.1-1.8 0.3-2.4 1.9-3.1 1.3-0.5 2.6-0.9 4-1.4 3.7-1.3 7.3-2.6 11-3.9 1.3-0.5 2.6-1.1 3.9-1.5 2.6-0.8 3.1-0.6 4.4 1.7l0.3 0.6c1.4 2.8 2.8 5.7 4.1 8.5 0.3 0.6 0.4 1.3 0.6 1.9 0.3 0.9 0 1.7-0.9 2.2-1.2 0.6-2.4 1.2-3.5 1.9-1.1 0.6-2.1 1.2-3.1 1.9-0.8 0.7-1 2-0.6 3s1.3 1.5 2.3 1.3c0.8-0.1 1.6-0.2 2.3-0.5 2.7-1.2 5.5-2.3 8.1-3.7 3.1-1.6 3.4-2.7 1.8-5.8-2.3-4.3-4.5-8.6-6.8-12.9-0.3-0.6-0.6-1.2-0.8-1.8-0.3-1.1-0.2-2.1 0.8-2.8 0.7-0.5 1.5-1.1 2.2-1.6 4-2.7 8-5.3 12-8 0.5-0.3 1-0.7 1.5-1 1.7-1 2.4-1 3.7 0.4 2.6 3 5.1 6.2 7.6 9.3 0 0 0.1 0.1 0.1 0.2 0.7 1.4 0.7 2.2-0.4 3.3-0.8 0.8-1.7 1.5-2.6 2.3-0.8 0.7-1.7 1.4-2.4 2.2-0.9 0.9-1 2-0.4 3s1.5 1.6 2.8 1.3c0.8-0.2 1.5-0.5 2.2-0.9 2.6-2 5.3-4 7.7-6.1 2.9-2.5 2.9-3 0.4-5.9-3.3-3.8-6.6-7.6-9.9-11.4-1.8-2.1-1.7-3.2 0.1-5.2 4.5-5 9-10.1 13.5-15.1 0.5-0.5 1-1 1.5-1.6 0.8-0.8 1.7-0.9 2.7-0.5 0.5 0.2 1 0.5 1.4 0.8 2.6 1.8 5.2 3.6 7.7 5.5 0.5 0.4 1 0.8 1.4 1.2 1.2 1.2 1.3 2 0.5 3.4-0.7 1.2-1.6 2.3-2.4 3.4-0.8 1-1.6 2-2.3 3-0.9 1.4-0.7 2.5 0.4 3.6 1.2 1.1 2.5 1.1 3.8 0 0.4-0.4 0.8-0.8 1.1-1.2 2.2-3 4.5-5.9 6.7-8.9 0.5-0.6 0.9-1.3 1.3-2 0.9-1.7 0.7-2.6-0.7-3.9-0.6-0.6-1.4-1-2.1-1.5-3.9-2.5-7.8-5-11.6-7.6-2.4-1.6-2.7-2.8-1.4-5.4 0.1-0.1 0.1-0.2 0.2-0.3 3.4-6.2 6.5-12.5 9.2-19 1.1-2.6 2.5-3.3 5.3-2.4 3.2 1 6.3 2.2 9.4 3.4 2.4 1 2.8 1.8 2 4.2-0.5 1.7-1.3 3.3-1.8 5-0.3 1.1-0.5 2.2-0.5 3.4 0 1 0.6 1.8 1.8 2 1.4 0.3 2 0.1 2.8-1.1 0.5-0.8 1-1.7 1.4-2.6 1.3-3.4 2.6-6.8 3.9-10.2 0.2-0.5 0.3-1.1 0.4-1.6 0.3-1.3-0.1-2.3-1.3-2.9-1.4-0.6-2.9-1.2-4.4-1.7-3.5-1.1-7-2.1-10.5-3.1-0.9-0.3-1.8-0.7-2.7-1.1-1-0.4-1.5-1.1-1.4-2.1 0.1-1.5 0.1-2.9 0.4-4.3 0.9-4 1.8-7.9 2.2-12 0.2-1.6 0.5-3.1 0.9-4.6 0.7-2.4 2-3.1 4.5-2.9 3 0.4 5.9 0.6 8.9 1 0.4 0 0.7 0.1 1.1 0.1 2.1 0.4 2.5 0.7 2.6 2.8 0.1 1.8-0.1 3.7 0 5.5 0 0.8 0.2 1.6 0.5 2.3 0.9 1.7 2.6 1.7 3.9 0.3 0.8-1 1.2-2.1 1.3-3.3 0.2-1.6 0.3-3.1 0.4-4.7 0.1-1.7 0.1-3.4 0.1-5.1-0.1-1.9-0.9-2.9-2.8-3.2-0.7-0.1-1.5-0.1-2.2-0.2-4.6-0.1-9.2-0.2-13.9-0.4-0.6 0-1.2-0.1-1.8-0.2-0.9-0.2-1.5-0.8-1.6-1.7-0.1-1.4-0.3-2.8-0.3-4.2-0.1-2.6-0.1-5.1-0.4-7.7-0.2-2.1-0.6-4.2-0.9-6.3s0.6-3.6 2.7-4.2c0.3-0.1 0.7-0.1 1.1-0.2 2.5-0.4 5-0.9 7.5-1.3 1.1-0.2 2.2-0.4 3.2-0.4 1.5 0 2.4 0.6 2.8 2.1 0.3 1 0.2 2.2 0.4 3.2 0.2 1.2 0.3 2.4 0.7 3.5 0.5 1.4 1.6 1.9 3.1 1.6 1.3-0.2 2-1.1 2.1-2.6 0.1-0.7 0.1-1.3 0-2-0.4-2.9-0.8-5.8-1.3-8.6-0.7-3.9-1.5-4.5-5.4-3.8-4.5 0.8-9.1 1.8-13.6 2.8-3.6 0.8-4.7 0.1-5.7-3.4v-0.2c-1.5-6-3.5-11.9-5.7-17.7-0.3-0.9-0.6-1.9-0.6-2.8-0.1-1.2 0.2-2.3 1.5-2.9 3.4-1.6 6.7-3.1 10.1-4.7 0.2-0.1 0.5-0.1 0.7-0.2 1.8-0.4 2.6-0.1 3.5 1.5 0.7 1.3 1.3 2.8 1.9 4.1 0.5 1.2 1 2.4 1.7 3.4 0.8 1.2 1.8 1.5 3 1s2-1.8 1.9-3c-0.1-0.6-0.3-1.2-0.5-1.7-1.6-3.8-3.2-7.6-4.9-11.4-0.3-0.6-0.6-1.2-1-1.7-1-1.2-1.7-1.4-3.2-0.9-0.7 0.3-1.3 0.6-2 0.9-4.3 2.2-8.5 4.4-12.8 6.6-0.4 0.2-0.9 0.4-1.3 0.6-1.2 0.5-2.3 0.2-3.1-0.8-0.6-0.8-1.1-1.6-1.7-2.4-3.6-5.4-7.3-10.8-10.9-16.2-0.3-0.4-0.6-0.8-0.9-1.2-1-1.6-1-3.2 0.4-4.5 2.8-2.5 5.6-5 8.6-7.4 1.7-1.4 2.4-1.3 4 0.3 1.1 1.1 2.1 2.4 3.1 3.6 0.8 1 1.7 2 2.6 2.8 1 0.8 2.3 0.6 3.3-0.3 1.1-0.9 1.3-1.8 0.6-3.1-0.3-0.5-0.6-1.1-1-1.5-2.5-3-5-6-7.4-9-0.4-0.5-0.9-1-1.4-1.4-1.3-1.1-2-1.2-3.4-0.2-0.7 0.5-1.4 1-2 1.6-3.4 3.2-6.7 6.4-10.1 9.5-2.6 2.4-3.4 2.4-6.2 0-4.4-3.8-8.8-7.5-13.2-11.3-0.6-0.5-1.2-1.1-1.7-1.6-0.8-0.9-1-1.9-0.4-3 0.4-0.8 0.9-1.6 1.4-2.4 1.4-2 2.7-4 4.1-6 0.5-0.7 1-1.4 1.6-2 1.1-1.2 1.9-1.4 3.4-0.6 0.9 0.5 1.7 1.2 2.5 1.8 0.9 0.7 1.9 1.4 2.9 2 1.4 0.8 2.7 0.3 3.5-1.1s0.6-2.7-0.9-3.8c-3.4-1.9-6.4-4-9.4-6-0.4-0.3-1-0.4-1.5-0.6-1-0.2-1.7 0-2.3 0.9-1.4 2.3-3 4.6-4.5 6.9-1.7 2.6-3.3 5.1-5 7.7-1.3 2-2.7 2.2-4.9 1.1l-14.4-7.2c-0.5-0.3-1.1-0.5-1.6-0.9-0.9-0.8-1.5-1.8-1.1-3.1 1.4-3.8 2.7-7.5 4.3-11.2 0.7-1.7 1.8-2 3.6-1.5 1.1 0.3 2.1 0.9 3.2 1.3s2.3 0.6 3.5 0.8c1.1 0.1 1.8-0.6 2.2-1.6s0.3-2-0.6-2.6c-0.8-0.6-1.7-1.2-2.6-1.6-2.8-1.2-5.6-2.4-8.4-3.5-3-1.2-3.9-0.8-5 2.4-0.1 0.4-0.3 0.8-0.4 1.2-1.2 3.7-2.5 7.4-3.7 11.1-0.4 1.1-0.8 2.2-1.3 3.2-0.5 1.2-1.4 1.9-2.9 1.8-1.3-0.1-2.6-0.2-3.8-0.4-4.2-0.9-8.4-1.9-12.6-2.9-1.4-0.3-2.9-0.5-4.3-0.8l-2.7-0.6c-0.8-0.3-1.2-0.8-1.3-1.7-0.2-1.8-0.3-3.6 0-5.4 0.4-2.5 0.5-5.1 0.7-7.6 0.1-1.2 0.8-1.8 1.8-1.9 1.5-0.1 3 0 4.5 0.1 1.6 0.1 3.3 0.4 4.9 0.4 1.4 0 2.5-1.1 2.7-2.5 0.2-1.3-0.5-2.4-1.9-2.9-0.7-0.2-1.4-0.3-2.1-0.4-3.1-0.4-6.1-0.9-9.2-1.3-1.2-0.2-2.4-0.3-3.6-0.3-2.3 0-2.9 0.5-3.3 2.8-0.1 1-0.2 1.9-0.2 2.9-0.3 4.2-0.5 8.4-0.8 12.6 0 0.5-0.2 1-0.3 1.4-0.5 2.2-1.5 3-3.6 3.2-5.9 0.5-11.9 0.9-17.8 1.4-1.5 0.1-2.9 0.3-4.4 0.4-2.2 0.2-3.1-0.5-3.7-2.6-0.4-1.4-0.8-2.8-1-4.2-0.4-2.5-0.7-5-0.9-7.6-0.1-1.7 0-1.8 1.7-2.3 1.1-0.3 2.3-0.4 3.4-0.7 1.8-0.4 3.7-0.8 5.4-1.5 1.9-0.7 2-2.8 0.5-4.1-0.9-0.8-2-0.9-3.1-0.8-1.7 0.2-3.5 0.5-5.2 0.8-2.4 0.4-4.9 0.8-7.3 1.5-3.4 0.9-3.7 1.6-3 5 0.8 3.6 1.8 7.1 2.6 10.6 0.4 1.7 0.7 3.4 0.9 5.2 0.2 1.6-0.7 2.7-2 3.3-0.4 0.2-0.9 0.4-1.4 0.5-5.6 2-11.1 4-16.7 6-2.9 1-4 0.7-5.3-2-1.5-2.9-2.9-5.9-4.3-8.9-0.1-0.3-0.2-0.6-0.3-0.8-0.6-1.8-0.3-2.6 1.2-3.6 0.8-0.5 1.7-0.9 2.6-1.3s1.8-0.8 2.7-1.2c1.6-0.7 2-2.4 1.3-4-0.7-1.5-1.6-1.8-3.5-1.2-0.2 0.1-0.4 0.1-0.5 0.2-2.7 1.2-5.3 2.4-8 3.6-0.8 0.4-1.6 0.9-2.4 1.4-1 0.6-1.3 1.5-1 2.5 0.4 1.1 0.9 2.3 1.4 3.3 2.1 4.1 4.3 8.1 6.4 12.1 1.5 2.9 1.3 3.5-1.3 5.2-4.6 3.1-9.3 6.2-13.9 9.3-2.3 1.5-3 1.4-4.8-0.6-0.1-0.1-0.2-0.2-0.2-0.3-2-2.4-3.9-4.8-5.9-7.2-0.4-0.5-0.7-1-1-1.5-0.6-1.3-0.5-2.5 0.5-3.5 0.8-0.8 1.8-1.5 2.6-2.2s1.7-1.4 2.4-2.2c0.8-0.9 0.7-2.4-0.1-3.4-0.7-0.9-1.7-1.2-3-0.7-0.5 0.2-1 0.5-1.4 0.8-2.4 1.8-4.8 3.6-7.1 5.4-0.8 0.6-1.4 1.3-2.1 2-0.7 0.8-0.8 1.8-0.3 2.7 0.4 0.7 0.8 1.5 1.4 2.1l4.2 4.8c1.8 2.1 3.7 4.1 5.4 6.2 1.9 2.3 1.8 3.5-0.2 5.7-0.8 0.9-1.6 1.6-2.4 2.5-3.8 4.2-7.5 8.5-11.3 12.7-1.9 2.1-3.3 2.3-5.6 0.7-2.6-1.8-5.2-3.7-7.7-5.5-0.4-0.3-0.8-0.6-1.1-1-1.1-1.2-1.3-2.2-0.4-3.6 0.7-1.1 1.6-2.1 2.4-3.2s1.7-2.2 2.5-3.4c0.7-1.2 0.3-2.5-1-3.5-1.2-0.9-2.2-1-3.2 0.1-3.5 3.8-6.6 8-9.3 12.4-0.8 1.2-0.5 2.5 0.5 3.5 0.6 0.6 1.3 1.1 2 1.6 3.5 2.3 7.1 4.5 10.6 6.8 0.7 0.5 1.4 1 2 1.5 1.5 1.4 1.7 2.4 1 4.2l-0.9 1.8c-2.9 5.9-5.7 11.8-8.6 17.7-0.4 0.8-0.8 1.5-1.1 2.3-0.4 0.9-1 1.1-1.9 1-0.5-0.1-1-0.1-1.4-0.2-3.4-1.2-6.9-2.3-10.3-3.6-2.1-0.8-2.6-1.9-2.1-4.2 0.3-1.3 1-2.6 1.4-3.9 0.4-1.1 0.7-2.3 1-3.5s-0.5-2.1-1.3-2.9c-1.1-1-2.4-0.8-3.2 0.5-0.4 0.6-0.8 1.3-1 1.9-1.5 3.9-3 7.8-4.4 11.8-0.1 0.3-0.2 0.7-0.3 1.1-0.3 1.9 0.1 2.7 1.9 3.4 0.6 0.3 1.3 0.5 1.9 0.6 4.5 1.3 9 2.6 13.5 4 2.6 0.8 3.5 2.2 3.1 5-0.3 1.7-0.5 3.4-0.9 5-0.8 3.3-1.5 6.5-1.7 9.9-0.1 1.3-0.3 2.7-0.7 3.9-0.6 2-1.5 2.7-3.6 2.7-3.4 0-6.8-0.2-10.2-0.4-0.3 0-0.6-0.1-0.9-0.1-1.7-0.4-2.4-1.1-2.6-2.8-0.1-1.2 0-2.4 0-3.6v-3.1c0-1.1-0.4-1.9-1.5-2.2-1.2-0.4-2.3 0-3 1.1-0.4 0.7-0.8 1.4-1 2.1-0.8 3.6-0.9 7.2-0.7 10.9 0.1 1.4 0.6 2 2 2.3 0.9 0.2 1.9 0.3 2.9 0.3 2.3 0.1 4.6 0 6.9 0.1 2.2 0.1 4.5 0.2 6.7 0.4 3 0.2 3.9 1.3 4 4.3l0.3 8.4c0 0.9 0.2 1.8 0.3 2.7 0.3 1.8 0.7 3.6 0.9 5.4 0.2 2-0.2 2.6-2.1 3.3-3.9 1.5-8.1 1.7-12.2 1.9-1.9 0.1-2.9-0.9-3.3-2.8-0.2-0.9-0.2-1.9-0.3-2.9-0.1-0.9-0.1-1.8-0.4-2.7-0.2-0.6-0.7-1.3-1.3-1.6-1.8-1-4.4 0.1-4.2 2.5 0.3 4.5 1.3 8.9 2.2 13.3 0.3 1.6 1.5 2 3.1 1.6 1.1-0.3 2.2-0.7 3.3-0.9 3.2-0.7 6.4-1.3 9.6-2 1.1-0.2 2.3-0.4 3.4-0.5 2.3-0.2 3.5 0.7 4.2 2.9l0.9 3.3c1.7 5.3 3.5 10.5 5.2 15.7 1.1 3.1 0.6 4.5-2.4 5.9-2.9 1.4-5.8 2.6-8.6 3.9-2.3 1-3.5 0.6-4.7-1.8-0.7-1.3-1.1-2.7-1.7-4-0.4-0.9-0.8-1.9-1.4-2.7-0.8-1.1-2.5-1.4-3.8-0.7-1.2 0.6-1.5 1.4-1 3.1 0 0.2 0.1 0.3 0.2 0.5 1.8 4.1 3.5 8.3 5.3 12.4 1.2 2.6 2.6 2.9 5.2 1.7 0.3-0.1 0.5-0.3 0.8-0.4 4.1-2.1 8.1-4.2 12.2-6.2 0.5-0.2 1-0.5 1.5-0.7 1.4-0.6 2.7-0.3 3.6 0.9 0.7 0.8 1.3 1.8 1.9 2.7 3.4 5 6.8 10.1 10.3 15.1 0.4 0.6 0.9 1.2 1.3 1.8 0.7 1.1 0.6 3.4-0.1 4.1-2.9 2.6-5.8 5.2-8.8 7.7-1.4 1.1-3 0.9-4.3-0.4-1-1-1.8-2.1-2.7-3.2-0.8-1-1.6-2-2.5-2.9-1-1-1.8-1-3-0.3-1.8 1.1-2.1 2.8-0.6 4.7 2.6 3.3 5.3 6.5 8 9.7 0.4 0.5 0.8 0.9 1.3 1.3 1.3 1.1 2.1 1.1 3.4 0 0.6-0.5 1.2-1 1.8-1.6 3.1-2.9 6.2-5.9 9.3-8.8 0.8-0.7 1.6-1.4 2.4-1.9 1-0.7 2.1-0.6 3.1 0 0.5 0.3 1 0.7 1.4 1.1l12.6 10.8c0.6 0.5 1.1 0.9 1.7 1.4 1.7 1.7 1.9 2.6 0.6 4.6-1.8 2.9-3.8 5.6-5.8 8.4-0.2 0.3-0.5 0.6-0.7 0.8-1.4 1.4-2.2 1.5-3.9 0.5-1-0.6-2-1.4-3-2.1-0.8-0.5-1.7-1-2.6-1.3-1.2-0.4-2.5 0.2-3.1 1.3-0.6 1-0.5 1.9 0.5 3 0.7 0.7 1.4 1.4 2.2 1.9 2.2 1.6 4.4 3.1 6.6 4.6 2.7 1.8 3.6 1.7 5.4-1 1.5-2.2 2.9-4.5 4.3-6.8 1.5-2.4 3.1-4.8 4.7-7.2 1.3-1.9 1.8-1.9 3.8-0.9l15 7.5c3.1 1.6 3.5 2.6 2.3 5.8-1 2.6-2 5.2-3.1 7.8-0.5 0.9-1.2 2.1-2 3.6z"/>
		<path class="st0" d="m666.3 195.2c-4.4-9.3-8.8-18.5-13.3-27.7h-5.2v27.8h-26.3c-0.6-2.2-0.8-76.7-0.2-81.2 0.8-0.1 1.7-0.2 2.6-0.2h31.6c6.1 0 12.1 0.9 17.8 3.1 14.5 5.6 20.6 21.6 13.6 35.6-1.8 3.6-4.5 6.5-7.9 8.7-0.8 0.6-1.7 1.1-2.9 1.8 6.1 10.6 12.2 21.2 18.2 31.8-2.1 0.7-23 1-28 0.3zm-18.3-48c2.8 0.6 8.1 0.6 10.3 0 3.1-0.9 4.7-3.1 4.7-6.6s-1.5-5.8-4.5-6.7c-3.4-1-6.9-0.7-10.5-0.4v13.7z"/>
		<path class="st0" d="m556.3 183.2c-1.1 4.1-2.1 8.1-3.1 12.2h-28.2c8.5-27.2 16.9-54.1 25.4-81.2h35.2c8.4 26.9 16.8 53.8 25.2 80.8-2.3 0.7-24.2 0.9-28.1 0.3-1-3.9-2.1-7.8-3.2-12-7.8-0.1-15.4-0.1-23.2-0.1zm17.9-20.8c-2-7.9-4-15.5-6-23.2h-0.6c-2 7.7-3.9 15.3-5.9 23.2h12.5z"/>
		<path class="st0" d="m853.6 195.3h-28.2c-1.1-4-2.2-8-3.3-12.1h-23.1c-1 3.9-2.1 7.9-3.2 12.1h-27.6c0-2.2 23.2-77.3 25.1-81.3h34.9c8.4 27 16.8 54 25.4 81.3zm-37.1-32.9c-0.4-4.5-5-21.4-6.4-22.9-1.8 7.7-4.1 15.1-5.7 22.9h12.1z"/>
		<path class="st0" d="m525.6 140.2c-0.5-11.4-6-19.2-16.7-23.4-5.2-2-10.7-2.9-16.3-2.9h-31.9c-0.8 0-1.6 0.1-2.4 0.2v81c3.8 0.7 24.2 0.5 26.6-0.2v-24.5c3.4 0 6.5 0.1 9.5 0 5.6-0.2 11-1.2 16.2-3.5 8-3.6 13.1-9.7 14.5-18.5 0.5-2.7 0.6-5.4 0.5-8.2zm-27.2 4.1c-0.4 2.9-2.1 4.9-4.9 5.4-2.6 0.5-5.3 0.5-8.3 0.7v-16.1c3-0.6 5.9-0.4 8.8 0.3 0.7 0.2 1.3 0.5 1.9 0.9 3 2.3 2.9 5.6 2.5 8.8z"/>
		<path class="st0" d="m378 181.7c6-4.1 11.7-8.1 17.6-12.1 1 0.8 1.8 1.6 2.6 2.3 4.2 3.5 8.9 5.6 14.5 5.2 1.3-0.1 2.6-0.4 3.8-0.9 3.2-1.4 3.6-5 0.9-7.1-1.1-0.9-2.4-1.5-3.7-2-3.3-1.2-6.7-2.4-10-3.5-4.4-1.5-8.7-3.3-12.6-5.8-14.1-9-14.4-33.8 3.3-41.9 5.4-2.5 11-3.4 16.8-3.4 7.2 0 14.1 1.2 20.6 4.4 4.4 2.2 8.2 5.1 11.5 9.2-5.6 3.9-11.1 7.7-16.6 11.5-2.8-2.7-5.8-4.8-9.6-5.2-2-0.2-4 0-6 0.4-1.6 0.3-2.7 1.3-3.1 3-0.4 1.8 0.3 3.3 1.7 4.3 1.3 0.9 2.7 1.8 4.2 2.3 3.5 1.3 7.1 2.4 10.6 3.7 3.6 1.4 7.1 2.9 10.5 4.7 15.2 8.1 14.4 30.4 1.9 39.2-4.6 3.2-9.6 5.1-15.1 6.1-8.9 1.5-17.8 1-26.3-2-6.9-2.4-12.6-6.5-17.5-12.4z"/>
		<path class="st0" d="m747.5 195.3h-26.7v-60c-3.8 0-7.3-0.1-10.8-0.1h-10.6c-0.7-2.3-0.8-17.2-0.2-21.1h69.9v20.9c-3.4 0.4-7 0.1-10.4 0.2h-11c-0.3 4.1-0.1 8-0.1 11.9v12.2 11.8 12.2c-0.1 3.8-0.1 7.8-0.1 12z"/>
		<path class="st0" d="m158.2 278c-4.6-0.3-9.5-0.2-14.3-0.9-25.9-3.6-48.5-14.2-67.3-32.6-15-14.6-25.3-32-31-52.1-1.6-5.4-2.4-10.9-3.3-16.4-1.4-8.6-1.5-17.2-0.7-25.8 2.8-28.3 14-52.8 34.2-73 16.1-16.1 35.3-26.5 57.5-31.6 4.5-1 9.1-1.6 13.7-1.9 2.9-0.2 5.7-0.5 8.5-0.7 4.3-0.3 8.6 0.1 12.9 0.5 3.1 0.3 6.2 0.4 9.3 0.9 6.8 1.1 13.4 2.9 19.9 5.2 35.8 12.6 63.6 42.4 73.9 78.9 1.9 6.6 3.2 13.4 3.9 20.2 0.6 5.1 0.6 10.2 0.4 15.3-0.8 24.4-8.4 46.6-22.9 66.2-15.7 21.1-36.2 35.5-61.4 43-6.3 1.9-12.8 3.1-19.3 4-4.6 0.6-9.2 0.5-14 0.8zm0.2-6.3c3.7-0.1 7.6-0.2 11.5-0.3 0.7 0 1.5-0.1 2.2-0.2 3.9-0.8 7.8-1.5 11.6-2.4 10.8-2.5 21-6.6 30.6-12.2 9.3-5.4 17.7-12 25-19.9 4.8-5.1 9.1-10.6 12.9-16.5 5.8-9.2 10.3-18.9 13.1-29.3l0.6-2.1c0.7-2.6 1.3-5.2 1.9-7.8 0.2-1 0.2-2.1 0.4-3.1 0.9-4.3 1.4-8.6 1.5-13 0.2-5.6 0-11.2-0.6-16.7-0.3-2.8-0.8-5.5-1.4-8.3-0.8-3.5-1.7-7-2.7-10.4-8-26.8-23.8-47.6-47.2-62.8-9.9-6.4-20.6-10.9-32-13.9-0.9-0.2-1.9-0.5-2.8-0.7-2-0.4-3.9-0.9-5.9-1.2-4-0.5-8-0.9-12-1.4-3.7-0.4-7.4-0.7-11.1-0.2-4.5 0.6-9.1 1-13.6 1.6-2.8 0.4-5.6 0.9-8.4 1.6-2.5 0.6-4.8 1.6-7.3 2.3-8.2 2.4-15.9 6-23.3 10.4-9.7 5.8-18.4 12.9-25.9 21.4-13.6 15.3-22.2 33-26.3 53-0.4 1.7-0.3 3.5-0.7 5.2-1.9 8.3-1.8 16.7-1.1 25 0.3 4 1.8 7.8 1.7 11.9 0 0.2 0.1 0.5 0.1 0.7 1.2 4.2 2.1 8.4 3.5 12.4 6.2 18.9 16.6 35.1 31.4 48.4 8.9 7.9 18.7 14.4 29.6 19.2 8 3.5 16.3 6 24.9 7.7 2.7 0.5 5.4 1.2 8.1 1.4 3.9 0.1 7.7 0.1 11.7 0.2z"/>
		<path class="st0" d="m149.6 90.8c3.2 0.1 6.3 0.2 9.5 0.4 0.5 0 1.1 0.2 1.6 0.3 1.2 0.2 1.9-0.2 2.2-1.3 0.2-1-0.3-2-1.3-2.3-0.8-0.2-1.7-0.3-2.5-0.4-12.2-1.1-24.3-0.6-36.4 1.3-9.2 1.5-18.3 3.3-27.4 5.4-0.5 0.1-1.1 0.2-1.6 0.3-1.2 0.1-2.6-1.5-1.7-2.8 0.4-0.6 0.9-1.2 1.3-1.7 3.3-3.9 6.7-7.9 10.1-11.8 1.7-2 3.8-3.3 6.6-3.4 4-0.2 8-0.4 11.9-0.8 8.6-0.8 17.2-0.6 25.7-0.2 6.3 0.3 12.6 0.9 18.9 1.8 3.6 0.5 7.2 1.8 10.7 2.9 1.2 0.4 2.2 1.2 3.2 2 1.9 1.6 4 2.6 6.6 2.7 2.2 0.1 4.4 0.5 6.5 0.8 4.6 0.6 8.4 3.1 11.9 5.9 0.7 0.6 1.4 1.3 2.1 2 2.8 2.8 6.2 4.4 10 5.5 3 0.8 5.9 1.8 8.8 2.9 3.2 1.3 6.3 2.8 9.5 4.2 1.1 0.5 2.3 0.9 3.4 1.4 3.2 1.5 4 6 1.4 8.3-1.7 1.4-2.1 3.1-2.3 5.1-0.1 0.8-0.1 1.7-0.3 2.5-0.3 1.4-0.8 1.9-2.3 1.8-1.8-0.2-3.6-0.5-5.4-1-4.2-1.2-8.4-2.4-12.8-3.1-8.6-1.3-17-0.7-25.3 1.4-6.8 1.7-13.4 4.1-19.2 8.1-9.2 6.4-16 14.8-20.1 25.4-1.3 3.5-2.9 6.8-3.7 10.5-2.5 11.5-2.2 23 2.4 33.9 5.7 13.5 15.6 22.7 30 26.6 1.6 0.4 3.2 0.7 4.8 1 1.5 0.3 3.3 2.5 3.6 4.3 0.5 3 1.4 5.9 2.7 8.6 0.5 1 1.4 1.8 2.1 2.7s1.4 1.8 1.8 2.9c0.5 1.1 0.1 1.9-1 2.3-1.1 0.3-2.3 0.6-3.4 0.5-5.5-0.7-11-1.6-16.4-2.4-0.8-0.1-1.6-0.5-2.4-0.7-2.1-0.7-2.9-2.2-3-4.3s-0.2-4.2-0.4-6.3c-0.1-0.8-0.2-1.6-0.5-2.3-0.3-0.8-0.9-1.3-1.8-1.3-1 0-1.9 0.8-2.1 1.7-0.1 0.3-0.1 0.6-0.1 0.9 0.3 2.2 0.5 4.5 0.9 6.7 0.3 1.5-0.1 2.7-1.5 3-3 0.7-5.8 0.1-8.1-2.1-1.2-1.1-1.8-2.4-1.8-4 0-4.5 0.6-8.8 2-13.1 0.5-1.4-0.2-2.8-1.5-3.2-0.3-0.1-0.8 0-1 0.1-0.5 0.5-1.1 1-1.4 1.6-0.4 0.6-0.6 1.4-0.7 2.1-0.4 3.4-1.4 6.8-1.2 10.3 0.1 0.8-0.1 1.7-0.4 2.5-0.5 1.7-1.8 2.4-3.5 2-1.1-0.3-2.2-0.6-3.3-1-1.6-0.4-2.5-1.7-3.5-2.8-0.3-0.3-0.4-0.9-0.3-1.4 0.4-3.1 0.6-6.3 1.4-9.4 1-3.9 2.4-7.6 3.7-11.4 0.1-0.4 0.5-0.7 0.7-1.1 0.5-0.9 0.2-2.3-0.6-2.9s-1.8-0.4-2.3 0.5c-0.4 0.6-0.6 1.3-0.9 2-2.7 5.9-4.7 11.9-5.1 18.3 0 0.8-0.3 1.7-0.7 2.4-0.6 1.5-2.2 2-3.6 1.3-1.1-0.6-2.3-1.1-3.3-1.8-1.3-1-2.3-2.3-2.1-4.2 1.1-7.8 2.9-15.3 6.8-22.2 1.7-3.1 3.4-6.2 5-9.3 0.6-1.2 0.5-2.2-0.4-2.8s-2.2-0.3-3 0.9c-2.6 3.7-4.6 7.6-6.4 11.6-2.3 5.3-3.7 10.9-5 16.6-0.1 0.4-0.1 0.8-0.1 1.3 0.1 1.7-0.8 2.7-2.2 3.3-1.2 0.6-2.3 0.1-3.3-0.5-0.9-0.6-1.8-1.3-2.8-1.8-2.1-1-2.7-3.7-2.2-5.5 2.1-7.3 4.4-14.6 8.2-21.2 2.7-4.8 5.5-9.5 9.4-13.4 1.1-1.2 2.1-2.5 3.1-3.8s1-2.2 0.2-2.9c-1-0.8-2-0.7-3.2 0.5-4.5 4.4-8.1 9.4-11.3 14.8-3.8 6.5-6.6 13.5-8.8 20.8-0.3 1-0.7 1.9-1.3 2.8-0.7 1.1-1.9 1.5-3 0.9-1.7-1-3.5-2-5-3.3-1.7-1.5-1.8-3.5-1.2-5.6 1.3-4.9 3.1-9.6 5.3-14.1 5.7-11.5 13.4-21.4 23.4-29.5 1.1-0.9 2.4-1.7 3.6-2.5 0.7-0.4 1.3-0.9 1.2-1.8s-0.6-1.6-1.4-2c-0.4-0.2-1.1-0.1-1.5 0.2-4.4 3.5-9 6.7-12.8 10.8-7.3 7.9-13.3 16.6-17.3 26.6-0.9 2.1-1.7 4.3-2.5 6.4-0.2 0.6-0.5 1.1-0.8 1.6-1.1 2.1-3.7 2.3-5.1 0.8-1.8-2.1-3.4-4.4-4.9-6.8-0.8-1.3-0.6-3 0-4.4 0.3-0.7 0.6-1.5 1.1-2.1 4.3-6.5 8.5-13 13-19.4 5.8-8.3 13.3-15.1 21.4-21 1.9-1.4 3.9-2.4 5.9-3.6 2.1-1.3 4.3-2.5 6.4-3.9 1.3-0.8 1.4-2.3 0.3-3.2-0.3-0.3-1.1-0.5-1.5-0.3-1.7 0.7-3.3 1.4-4.9 2.3-6.9 3.6-13 8.3-18.6 13.7-6 5.8-11.3 12.2-16.1 19.1-2.8 4-5.5 8.2-8.2 12.3-0.8 1.3-1.9 1.8-3.3 2-0.9 0.1-1.6-0.3-2-1.2-0.9-1.9-1.8-3.8-2.8-5.8-0.9-1.8-0.9-3.6 0-5.3 7.2-12.7 15.3-24.6 27.2-33.5 8.4-6.4 17.7-11.2 27.8-14.1 1.6-0.5 3.3-0.7 4.9-1.1 0.5-0.1 0.9-0.3 1.3-0.6 1-0.8 1.2-1.5 0.8-2.3-0.4-0.9-1.1-1.3-2.3-1.1-0.8 0.1-1.7 0.3-2.5 0.5-16.7 3.8-30.9 11.9-42.4 24.6-4.9 5.4-9.5 11-13.5 17-0.4 0.5-0.8 1.2-1.3 1.5-1.4 0.7-2.8 0-3.1-1.6-0.4-2.3-0.8-4.7-1.1-7-0.2-1.7-0.2-3.4-0.4-5.1-0.1-1.8 0.3-3.4 1.6-4.8 9.5-9.7 19.6-18.6 31.4-25.4 4.6-2.7 9.5-4.9 14.6-6.5 5.6-1.8 11.4-2.9 17.2-3.9 2.1-0.4 4.4-0.2 6.5-0.3 0.4 0 0.7 0 1.1 0.1 0.9 0.1 1.5-0.5 1.8-1.2s0.2-1.5-0.4-2c-0.4-0.3-0.9-0.7-1.4-0.8-5.9-2-11-5.2-15.3-9.6-1.3-1.3-2.3-3-3.4-4.5-0.1-0.1-0.2-0.3-0.3-0.5-0.9-1.8-0.3-3 1.7-3.2 3.8-0.4 7.6-0.8 11.4-1.1 3.5-0.2 6.2-0.1 8.9-0.2v0zm38.4 2.7c0.2 0.6 0.4 1.3 0.7 1.8 0.9 1.6 2.2 2.7 4 3.2 2.6 0.9 5.5 1 8 2.4 0.4 0.2 1.4 0 1.8-0.4 0.5-0.5 0.9-1.3 0.4-2.1-0.3-0.6-0.6-1.3-0.8-2-0.6-1.7-1.6-3-3.2-3.8-0.7-0.3-1.4-0.7-2.2-1-2.5-0.8-5-0.7-7.5 0.1-0.7 0.4-1.1 0.9-1.2 1.8z"/>
		<path class="st0" d="m205.4 202.2c-1.9-3.2-0.6-6.1 3-6.7 1.5-0.3 3.1-0.4 4.7-0.4 1.4-0.1 2.7 0.9 3 2.2 0.3 1.5 0 2.5-1.4 3.2-0.8 0.5-1.6 1.1-2.3 1.7-1.3 1.3-1.1 2.8 0.1 4.1 3.7 3.8 5.3 8.3 3.8 13.5-1.6 5.5-7.4 8.3-12.9 6.8-4.5-1.2-9.1-2-13.7-3-3.4-0.8-6.7-1.6-10-2.7-5.6-1.8-10.1-5.3-14.2-9.4-6.9-6.8-11.4-14.8-13.1-24.3-0.2-0.8-0.3-1.7-0.4-2.5-0.4-7.7-1-15.4 1.8-22.7 2.3-6.1 5.3-11.8 9.1-17 1.5-2.1 3.4-3.8 5.2-5.6 8.6-8 18.7-12.7 30.2-15 1.7-0.3 3.4-0.5 5-0.8 2-0.4 3.6 0.4 4.8 1.9 0.3 0.3 0.5 0.7 0.8 1 0.9 1 1.6 1 2.3-0.1l0.6-0.9c1-1.2 2.1-1.5 3.5-0.9 1.4 0.5 2 1.4 1.8 3-0.2 1.9-0.6 3.8-0.9 5.7-0.1 0.6-0.1 1.3 0.1 2 0.3 1 1.8 1.4 2.6 0.6 1.3-1.3 2.5-2.6 3.6-4.1 1-1.4 1.8-3 2.7-4.5 0.4-0.6 0.8-1.2 1.3-1.8 0.9-1.2 2.1-1.2 3.4-0.9 1.2 0.3 1.8 1 1.7 2.2-0.1 1.4-0.3 2.8-0.8 4.1-1 2.5-1.3 5-1.1 7.8 0.6 10.3 1 20.5 1.4 30.8 0.1 3.3 0 6.6 0.2 9.9 0.2 2.7-2.5 4.9-4.8 4.5-1.4-0.2-2.8-0.3-4.2-0.4-1-0.1-1.8 0.2-2.5 0.9-0.9 0.8-1 1.4-0.4 2.7 0.5 1.2 0.2 2.7-0.7 3.5-0.9 0.9-2.4 1.3-3.5 0.7-2.4-1.4-5-1.3-7.6-1-3.5 0.4-6.7 1.9-9.5 4-2.2 1.6-3.4 3.8-3.9 6.4-0.7 3.3 1.4 5.3 4.1 6.2s5.5-0.4 6.6-3.1c0.1-0.4 0.3-0.9 0.5-1.6zm20.2-36.5h0.1c-0.2-4.2-0.4-8.4-0.6-12.5 0-0.2 0-0.4-0.1-0.5-0.2-1.3-0.8-2-2-2.3-1.3-0.2-2.4 0.2-2.9 1.3-1.1 2.2-2.6 4.2-2.5 6.9 0.1 1.8-1.6 2.9-3.4 2.6-1.4-0.2-2.3-1-3-2.2-0.9-1.5-2.2-2.4-4-2.9-1.4-0.4-2.8-0.5-4.1-1.2-1.2-0.7-1.6-1.5-1.6-2.8-0.1-1.3 0.4-2.2 1.5-2.6 1.9-0.8 3.9-1.8 5.9-2.3 2.8-0.6 5.8-0.8 8.7-1.1 1.6-0.2 3.2-0.5 4.7-1.2 1.3-0.6 2-1.8 2.2-3.1s-0.9-2.3-2.2-2.2c-1 0.1-1.9 0.3-2.9 0.5-1.8 0.4-3.5 1-5.3 1.2-3.2 0.5-6.5 0.8-9.8 1-2.8 0.2-4.6 1.7-5.9 4-5.1 8.7-11.6 15.9-20.8 20.4-5 2.5-5.8 10.1-2.4 13.1 1.2 1.1 2.4 2.3 3.4 3.6 1.5 2 2.6 4.2 1.3 6.9-1.3 2.8-0.4 5.4 2.1 7.7 0.7 0.6 1.4 0.8 2.3 0.7 2.6-0.3 3.9-2.1 4.6-4.4 0.6-2 1.5-3.8 2.7-5.5 3.4-4.8 7.9-8.1 13.5-9.7 2.9-0.8 5.9-1.1 9-0.6 2.7 0.4 5.6 0.4 8.4 0.3 2.3-0.1 3.4-1.4 3.4-3.7v-2.2l-0.3-7.2z"/>
		<path class="st0" d="m74.5 138.4c0.5-3.7 1-7.5 1.6-11.2 0.3-1.7 1.2-3 2.7-3.9 10.1-6.1 20.6-11.3 31.7-15 5.4-1.8 10.9-3.1 16.4-4.1 2.3-0.4 4.2 0.2 5.8 2 0.4 0.4 0.9 0.8 1.4 1.1 0.9 0.4 1.5 1 1.3 1.9-0.2 1-0.6 1.8-1.8 2.1-2 0.4-4 0.9-6 1.4-8.2 2.2-15.9 5.6-23.1 10.2-8.5 5.4-16.5 11.4-24.2 17.9-0.4 0.4-0.8 0.7-1.2 1.1-0.9 0.7-1.8 1.2-3 0.5-1.1-0.6-1.6-1.4-1.4-2.7 0.1-0.4 0-0.9 0-1.3h-0.2z"/>
		<path class="st0" d="m120.1 93.4h1.3c0.9 0 1.6 0.4 2 1.3 0.4 0.8 0.9 1.6 1.5 2.2 0.9 0.9 1.4 1.9 1 3.1s-1.3 1.8-2.6 2.1c-3.6 0.8-7.3 1.5-10.8 2.6-7.7 2.3-15 5.5-22.3 9.1-1.7 0.8-3.4 1.8-5.1 2.8l-0.6 0.3c-1.4 0.7-2.5 0.6-3.5-0.4s-1.1-2.2-0.6-3.4c1.2-2.9 2.5-5.7 3.8-8.5 0.5-1 0.6-2 1.6-2.8 0.8-0.6 1.6-1.2 2.6-1.5 7.4-1.8 14.7-3.7 22.1-5.4 3.1-0.7 6.3-1.1 9.5-1.7 0 0.1 0 0.1 0.1 0.2z"/>
</svg>
